<svg width="300" height="300" viewBox="0 0 300 300" fill="none" xmlns="http://www.w3.org/2000/svg">
<path fill-rule="evenodd" clip-rule="evenodd" d="M150 300C232.843 300 300 232.843 300 150C300 131.224 296.55 113.253 290.25 96.6873C290.745 100.722 291 104.831 291 109C291 164.228 246.228 209 191 209C135.772 209 91 164.228 91 109C91 53.7715 135.772 9 191 9C195.169 9 199.278 9.25508 203.313 9.75049C186.747 3.44993 168.776 0 150 0C67.1573 0 0 67.1573 0 150C0 232.843 67.1573 300 150 300Z" fill="#F1F1F1"/>
<path fill-rule="evenodd" clip-rule="evenodd" d="M150 300C232.843 300 300 232.843 300 150C300 131.224 296.55 113.253 290.25 96.6873C290.745 100.722 291 104.831 291 109C291 164.228 246.228 209 191 209C135.772 209 91 164.228 91 109C91 53.7715 135.772 9 191 9C195.169 9 199.278 9.25508 203.313 9.75049C186.747 3.44993 168.776 0 150 0C67.1573 0 0 67.1573 0 150C0 232.843 67.1573 300 150 300Z" fill="url(#paint0_linear_37_3)"/>
<path fill-rule="evenodd" clip-rule="evenodd" d="M203 171C244.421 171 278 137.421 278 96C278 54.5786 244.421 21 203 21C161.579 21 128 54.5786 128 96C128 102.281 128.772 108.381 130.226 114.211C132.637 88.8435 154.001 69 180 69C207.614 69 230 91.3858 230 119C230 144.999 210.156 166.363 184.789 168.774C190.619 170.228 196.719 171 203 171Z" fill="#F1F1F1"/>
<path fill-rule="evenodd" clip-rule="evenodd" d="M203 171C244.421 171 278 137.421 278 96C278 54.5786 244.421 21 203 21C161.579 21 128 54.5786 128 96C128 102.281 128.772 108.381 130.226 114.211C132.637 88.8435 154.001 69 180 69C207.614 69 230 91.3858 230 119C230 144.999 210.156 166.363 184.789 168.774C190.619 170.228 196.719 171 203 171Z" fill="url(#paint1_linear_37_3)"/>
<defs>
<linearGradient id="paint0_linear_37_3" x1="295.231" y1="-6.91452" x2="-18.2085" y2="241.46" gradientUnits="userSpaceOnUse">
<stop offset="0.114583" stop-color="#1AC6FC"/>
<stop offset="1" stop-color="#6451D6"/>
</linearGradient>
<linearGradient id="paint1_linear_37_3" x1="275.616" y1="17.5427" x2="118.896" y2="141.73" gradientUnits="userSpaceOnUse">
<stop offset="0.114583" stop-color="#1AC6FC"/>
<stop offset="1" stop-color="#6451D6"/>
</linearGradient>
</defs>
</svg>
